HIERARCHY
ROOT hip
{
	OFFSET 0.000000 0.000000 0.000000 
	CHANNELS 6 Xposition Yposition Zposition Xrotation Zrotation Yrotation
	JOINT abdomen
	{
		OFFSET 0.000000 3.402643 0.000000 
		CHANNELS 3 Xrotation Zrotation Yrotation
		JOINT chest
		{
			OFFSET 0.000000 8.438565 -0.680529 
			CHANNELS 3 Xrotation Zrotation Yrotation
			JOINT neck
			{
				OFFSET 0.000000 10.207942 -0.272212 
				CHANNELS 3 Xrotation Zrotation Yrotation
				JOINT head
				{
					OFFSET 0.000000 3.130431 0.000000 
					CHANNELS 3 Xrotation Zrotation Yrotation
					End Site
					{
						OFFSET 0.000000 3.130435 0.000000 
					}
				}
			}
			JOINT lCollar
			{
				OFFSET 3.470700 6.669187 -0.816635 
				CHANNELS 3 Yrotation Zrotation Xrotation
				JOINT lShldr
				{
					OFFSET 3.198488 0.000000 0.000000 
					CHANNELS 3 Zrotation Yrotation Xrotation
					JOINT lForeArm
					{
						OFFSET 10.139888 0.000000 0.000000 
						CHANNELS 3 Yrotation Zrotation Xrotation
						JOINT lHand
						{
							OFFSET 8.370511 0.000000 0.000000 
							CHANNELS 3 Zrotation Yrotation Xrotation
							End Site
							{
								OFFSET 4.083176 0.000000 0.000000 
							}
						}
					}
				}
			}
			JOINT rCollar
			{
				OFFSET -3.470700 6.669187 -0.816635 
				CHANNELS 3 Yrotation Zrotation Xrotation
				JOINT rShldr
				{
					OFFSET -3.198488 0.000000 0.000000 
					CHANNELS 3 Zrotation Yrotation Xrotation
					JOINT rForeArm
					{
						OFFSET -10.139888 0.000000 0.000000 
						CHANNELS 3 Yrotation Zrotation Xrotation
						JOINT rHand
						{
							OFFSET -8.370511 0.000000 0.000000 
							CHANNELS 3 Zrotation Yrotation Xrotation
							End Site
							{
								OFFSET -4.083176 0.000000 0.000000 
							}
						}
					}
				}
			}
		}
	}
	JOINT lThigh
	{
		OFFSET 5.308129 -1.633274 1.361059 
		CHANNELS 3 Xrotation Zrotation Yrotation
		JOINT lShin
		{
			OFFSET -2.041588 -20.007561 0.000000 
			CHANNELS 3 Xrotation Zrotation Yrotation
			JOINT lFoot
			{
				OFFSET 0.000000 -19.190928 -1.224953 
				CHANNELS 3 Xrotation Yrotation Zrotation
				End Site
				{
					OFFSET 0.000000 -2.449906 4.627600 
				}
			}
		}
	}
	JOINT rThigh
	{
		OFFSET -5.308129 -1.633274 1.361059 
		CHANNELS 3 Xrotation Zrotation Yrotation
		JOINT rShin
		{
			OFFSET 2.041588 -20.007561 0.000000 
			CHANNELS 3 Xrotation Zrotation Yrotation
			JOINT rFoot
			{
				OFFSET 0.000000 -19.190928 -1.224953 
				CHANNELS 3 Xrotation Yrotation Zrotation
				End Site
				{
					OFFSET 0.000000 -2.449906 4.627600 
				}
			}
		}
	}
}
MOTION
Frames: 10
Frame Time: 0.011111
-0.854674 53.124542 -39.793747 3.188506 1.931875 -3.599149 21.164703 -4.088899 0.116179 -21.506062 0.062386 0.310816 -14.981627 -9.167806 -3.570817 21.342581 13.892322 -7.819492 2.424333 -4.683778 1.783845 -69.787598 -27.756536 9.036645 -46.992203 6.946239 6.962121 8.524705 12.647240 -51.067764 -2.738486 -1.140572 2.095526 72.154556 22.897688 27.966536 51.713348 -8.082184 8.862817 -8.534408 -12.637552 28.109236 3.475880 5.778563 -7.218800 8.389254 -6.006464 -1.888149 -18.483988 10.593285 0.321022 -0.252113 -7.881030 18.725485 15.209257 5.893455 2.854245 -24.197805 -12.758989 -2.563379 
-0.851065 53.126942 -39.780815 3.188160 1.937304 -3.696653 21.144667 -4.103470 0.185269 -21.457174 0.033577 0.331484 -14.960813 -9.140888 -3.592981 21.231276 13.836664 -7.862369 2.424333 -4.683778 1.783845 -69.777283 -27.737177 9.192640 -47.064697 6.967877 6.998250 8.524705 12.647240 -50.960342 -2.738486 -1.140572 2.095526 72.155754 22.946501 27.810289 51.755512 -8.090714 8.872863 -8.534408 -12.637552 27.620951 3.582925 5.759118 -7.124547 8.289196 -5.995090 -1.877715 -18.469196 10.610876 0.297124 -0.282190 -7.876397 18.735235 15.296746 5.883462 2.861032 -24.222954 -12.656948 -2.523822 
-0.855576 53.123936 -39.782318 3.149052 1.936394 -3.727225 21.242794 -4.118505 0.194117 -21.476723 0.043449 0.331103 -15.057372 -9.094817 -3.608413 21.235352 13.733494 -7.912544 2.424333 -4.683778 1.783845 -69.798332 -27.795433 9.075966 -47.001907 6.944666 6.962425 8.524705 12.647240 -51.087292 -2.738486 -1.140572 2.095526 72.136887 22.985968 27.838888 51.797489 -8.099818 8.894049 -8.534408 -12.637552 27.484234 3.631537 5.758907 -7.076445 8.251827 -5.996500 -1.883984 -18.442417 10.619760 0.299154 -0.272162 -7.864613 18.726034 15.335011 5.893116 2.865678 -24.239929 -12.607520 -2.539922 
-0.861590 53.121834 -39.786232 3.090271 1.936794 -3.807214 21.370293 -4.156446 0.265549 -21.525526 0.035106 0.360718 -15.134317 -9.050229 -3.637107 21.299076 13.638448 -7.968542 2.424333 -4.683778 1.783845 -69.789032 -27.824888 9.056173 -46.971714 6.943327 6.960626 8.524705 12.647240 -51.077526 -2.738486 -1.140572 2.095526 72.138084 23.034782 27.858423 51.702629 -8.078229 8.853539 -8.534408 -12.637552 27.562357 3.759468 5.770607 -6.999798 8.150262 -6.003631 -1.865844 -18.416349 10.648010 0.312290 -0.262212 -7.853194 18.736542 15.421078 5.885856 2.882555 -24.228905 -12.567083 -2.500893 
-0.864597 53.121834 -39.785324 3.109575 1.930987 -3.855840 21.360302 -4.170111 0.302992 -21.496189 0.015777 0.371240 -15.124709 -9.056582 -3.626987 21.260128 13.662615 -7.967832 2.424333 -4.683778 1.783845 -69.789642 -27.854177 8.968283 -46.970844 6.936664 6.953541 8.524705 12.647240 -51.272839 -2.738486 -1.140572 2.095526 72.148239 23.044340 27.809940 51.724258 -8.085526 8.862353 -8.534408 -12.637552 27.523296 3.776680 5.757308 -6.951854 8.076012 -6.005954 -1.849115 -18.378462 10.629141 0.319606 -0.340957 -7.837800 18.775835 15.481488 5.892913 2.878881 -24.204685 -12.549628 -2.485078 
-0.869710 53.126041 -39.782021 3.129020 1.983187 -3.891517 21.361984 -4.243496 0.275392 -21.476677 0.025409 0.370876 -15.056561 -9.075957 -3.613420 21.146345 13.721859 -7.919863 2.424333 -4.683778 1.783845 -69.760109 -27.864429 8.889385 -46.981419 6.941756 6.962111 8.524705 12.647240 -51.565807 -2.738486 -1.140572 2.095526 72.176552 22.985142 27.781687 51.850368 -8.112194 8.913431 -8.534408 -12.637552 27.464699 3.807612 5.719865 -6.926655 8.035087 -5.995152 -1.854791 -18.344038 10.641955 0.290914 -0.379216 -7.873438 18.744186 15.535999 5.885120 2.901791 -24.228868 -12.462811 -2.478268 
-0.876026 53.129353 -39.784725 3.119126 1.944582 -3.913485 21.410185 -4.225716 0.310588 -21.476639 0.006262 0.381373 -15.028835 -9.118949 -3.596990 21.071405 13.866580 -7.900488 2.424333 -4.683778 1.783845 -69.729767 -27.835623 8.996037 -47.023056 6.954834 6.980760 8.524705 12.647240 -51.556046 -2.738486 -1.140572 2.095526 72.208214 23.062628 27.688908 51.766228 -8.094657 8.882150 -8.534408 -12.637552 27.396343 3.826209 5.768174 -6.892988 7.986745 -5.995270 -1.830898 -18.333630 10.640741 0.289315 -0.379378 -7.824419 18.766163 15.599562 5.883434 2.898072 -24.298506 -12.375335 -2.464301 
-0.883544 53.128445 -39.784424 3.109251 1.915720 -3.934910 21.438911 -4.198301 0.318435 -21.457109 0.005765 0.371616 -15.059000 -9.132539 -3.596848 21.095163 13.942717 -7.871369 2.424333 -4.683778 1.783845 -69.709328 -27.806656 9.083416 -47.064697 6.967877 6.998250 8.524705 12.647240 -51.507214 -2.738486 -1.140572 2.095526 72.239883 23.140110 27.641132 51.702629 -8.078229 8.853539 -8.534408 -12.637552 27.337748 3.885746 5.808320 -6.861273 7.932879 -6.001743 -1.836621 -18.352800 10.629034 0.273368 -0.378875 -7.765954 18.818285 15.641421 5.881512 2.920803 -24.381924 -12.375443 -2.496975 
-0.888956 53.130856 -39.790138 3.080078 1.952716 -3.933787 21.538456 -4.258312 0.278535 -21.476677 0.025409 0.370876 -15.175134 -9.085126 -3.600822 21.190763 13.834965 -7.896253 2.424333 -4.683778 1.783845 -69.689911 -27.826508 9.141496 -47.064697 6.967877 6.998250 8.524705 12.647240 -51.546276 -2.738486 -1.140572 2.095526 72.249077 23.110615 27.651241 51.797489 -8.099818 8.894049 -8.534408 -12.637552 27.386578 3.875471 5.778678 -6.873571 7.986597 -5.995166 -1.840636 -18.410789 10.592588 0.291719 -0.361240 -7.812318 18.826094 15.650820 5.884367 2.922029 -24.356342 -12.413496 -2.497057 
-0.896174 53.125740 -39.798862 3.041121 1.949517 -3.925366 21.636494 -4.266747 0.269729 -21.525486 0.015967 0.371232 -15.253412 -9.073235 -3.600626 21.355940 13.767920 -7.890693 2.424333 -4.683778 1.783845 -69.669067 -27.778011 9.336291 -47.106350 6.980886 7.015763 8.524705 12.647240 -51.448620 -2.738486 -1.140572 2.095526 72.237473 23.042482 27.699713 51.912697 -8.123004 8.944285 -8.534408 -12.637552 27.513531 3.875474 5.778677 -6.873571 8.061021 -5.992949 -1.857362 -18.414583 10.634053 0.293128 -0.310430 -7.784397 18.837971 15.630631 5.884100 2.900780 -24.332384 -12.444269 -2.501565 
